<?xml version="1.0" encoding="utf-8"?>
<!-- Generator: Adobe Illustrator 23.0.1, SVG Export Plug-In . SVG Version: 6.00 Build 0)  -->
<svg version="1.1" id="Camada_1" xmlns="http://www.w3.org/2000/svg" xmlns:xlink="http://www.w3.org/1999/xlink" x="0px" y="0px"
	 viewBox="0 0 144 144" style="enable-background:new 0 0 144 144;" xml:space="preserve">
<style type="text/css">
	.st0{fill:#F44336;}
	.st1{fill:#FFFFFF;}
	.st2{fill:#546E7A;}
	.st3{fill:#455A64;}
	.st4{fill:#616161;}
</style>
<path class="st0" d="M110.4,110.7c-0.6-3.9-2.4-5.7-6.3-5.7h-0.3h-0.3c-1.2,0.3-3,0.9-8.1,4.5l-3,2.1c-0.6-0.3-1.5-0.6-2.4-0.6
	c-1.5,0-2.7,0.6-3.9,1.5l-3-1.5l-5.1-2.7c-2.7-1.2-5.4-2.1-7.5-2.1c-1.5,0-2.7,0.3-3.9,0.9c-1.5,1.2-2.1,3-1.8,5.4
	c0,1.2,0.3,2.7,0.3,3.9c0.6,6.3,0.9,10.8,6.9,11.1c0.3,0,0.6,0,0.9,0c3.3,0,7.2-1.2,10.8-3.9l2.7-1.8c0.9,0.6,2.1,1.2,3.3,1.2
	c1.5,0,2.7-0.6,3.6-1.2l4.2,0.9c1.8,0.3,3.3,0.6,4.8,0.6h1.2c1.5,0,3,0,4.5-0.9c1.8-0.9,2.7-3,2.7-6.3c0-1.5-0.3-3-0.3-4.2
	L110.4,110.7z"/>
<path class="st1" d="M65.1,116.7c0-1.2-0.3-2.4-0.3-3.9c-0.3-1.8,0-3,0.6-4.2c-15-0.3-19.8-8.1-19.8-8.1s-0.9,4.8,3.3,10.2
	c6.3,7.5,15.9,8.4,15.9,8.4h0.6C65.4,118.5,65.4,117.6,65.1,116.7z"/>
<path class="st2" d="M68.7,129l-2.1-4.2c-0.3-0.9-0.6-1.8-0.9-3.3l-0.3-2.1l-2.1-0.3c-2.7-0.6-9.3-2.4-14.1-8.1
	c-1.5-1.8-2.4-3.9-3-6l-1.2-3.9l-3.3,2.1c-6,3.9-15.9,10.2-19.2,12.9l-1.8,1.5l4.5,11.4H68.7L68.7,129z"/>
<path class="st3" d="M36.6,129h32.1l-2.1-4.2c-0.3-0.9-0.6-1.8-0.9-3.3l-0.3-2.1l-2.1-0.3c-2.7-0.6-9.3-2.4-14.1-8.1
	c-0.3-0.3-0.6-0.9-0.9-1.2L33,120L36.6,129z"/>
<path class="st2" d="M122.1,109.5c-1.8-1.8-7.2-5.7-9.3-7.2l-2.1-1.5c-0.6,0.6-1.8,2.1-3.9,3.6l2.1,2.1c0.9,0.9,1.5,2.4,1.8,3.9v0.9
	c0.3,1.2,0.3,2.7,0.3,4.2c0,5.1-1.8,6-2.7,6.3c-0.6,0.3-1.5,0.6-2.4,0.6l0.3,6h12.3l0.6-2.1c1.5-4.8,3.3-11.7,3.6-14.7v-1.5
	L122.1,109.5z"/>
<path class="st3" d="M118.8,129l0.6-2.1c0.9-2.4,1.5-5.7,2.4-8.4l-11.1-6c0,0.9,0.3,2.1,0.3,3.3c0,5.1-1.8,6-2.7,6.3
	c-0.6,0.3-1.5,0.6-2.4,0.6l0.3,6L118.8,129L118.8,129z"/>
<path class="st4" d="M30.9,59.4C30.9,59.4,31.2,59.1,30.9,59.4L30.9,59.4l0.3-0.3c1.5-1.2,3.6-2.1,5.4-2.1s2.7,0.6,3.6,0.9
	c3.9,2.1,4.8,6,5.1,8.7l0,0v0.3v0.3c1.8-0.6,3.6-1.2,4.2-1.5c0-0.3,0-0.9-0.3-1.8c-0.3-1.2-0.6-2.7-1.2-4.2
	c-1.2-3.3-0.9-7.5,0.9-12.9l0.3-0.6c0.3-1.2,0.9-2.4,0.9-3.3c0-0.9,0.3-1.8,0.3-2.1c0-0.9-0.3-1.5-0.6-2.4l-0.6-1.5l0.9-1.5
	c2.7-4.5,12.6-19.5,32.7-19.5c0.6,0,1.2,0,2.1,0h-0.6c-1.2-0.6-2.7-0.9-4.2-0.9c-0.6,0-1.5,0-2.1,0l0,0c-16.2,0-26.1,6.9-27.9,8.1
	l-0.3,0.3l-0.3,0.3c-1.8,0.6-11.1,4.5-12.9,12.6L36,37.2l-1.2,0.6c-1.2,0.6-2.1,1.5-2.7,2.7c-2.1,3.6-2.4,9-0.9,16.5l0.3,1.5
	L30.3,60L30,60.3C30.3,60,30.6,59.7,30.9,59.4z"/>
<path class="st1" d="M84,123h18v6H84V123z M42.6,67.2c-0.3-2.7-1.2-5.1-3.3-6.3c-0.9-0.3-1.5-0.6-2.4-0.6c-1.5,0-3.3,0.6-4.8,2.7
	L30,57c2.7-1.5,5.1-2.4,7.5-2.4c1.5,0,3,0.3,4.5,0.9c1.2,0.6,2.4,1.5,3.3,2.4c-0.6-4.2,0.3-8.7,1.5-12.3c0.6-1.5,0.9-3,1.2-3.9
	c0.3-1.8,0-2.1-0.6-3c-5.7,0.6-10.5,2.1-10.5,2.1l-1.5-5.7c0.3,0,6.3-1.8,13.2-2.4l2.1-0.3l0.9,1.8c0,0,0.3,0.3,0.3,0.6
	c0.9,0.9,2.1,2.7,2.4,5.7c0,0.6,0,1.8-0.3,2.7c-0.3,1.5-0.9,2.7-1.2,4.5c-1.2,3.6-2.1,7.8-0.9,10.8c0.6,1.8,0.9,3.6,1.2,4.8
	c0.3,1.2,0.6,3.9-0.6,4.8c-1.2,0.9-8.1,3-8.1,3S42.9,69.9,42.6,67.2z"/>
<path class="st1" d="M52.5,37.8l-5.4-2.4c0-0.3,11.1-24.6,39-22.8l-0.3,6C61.8,17.4,52.5,37.8,52.5,37.8z"/>
<path class="st1" d="M66,108.6c-15.3,0-20.4-8.1-20.4-8.1s-0.9,4.8,3.3,10.2c6.3,7.5,15.9,8.4,15.9,8.4"/>
<path class="st1" d="M64.5,122.1c-0.3,0-10.8-1.2-17.7-9.6c-5.1-6.6-4.2-12-3.9-12.6l1.5-7.8l4.2,6.9c0.3,0.3,4.5,6.6,17.7,6.6v6
	c-6.3,0-11.1-1.2-14.7-3c0,0,0,0,0,0.3c5.4,6.3,13.5,7.2,13.8,7.2L64.5,122.1z M104.1,126c-0.3,0-0.6,0-0.9,0
	c-5.4,0-10.5-1.8-10.8-1.8l2.1-5.7c0,0,4.2,1.5,8.4,1.5h0.3c1.5,0,3,0,3.9-0.3c0.9-0.6,0.9-2.7,0.9-3.9s-0.3-2.7-0.3-3.9V111
	c-0.3-2.4-1.2-3.3-3.6-3.3c-1.8,0.3-7.5,4.5-9.6,6l-1.5,1.2l-3.6-4.8l1.2-0.9c5.7-4.2,10.2-7.2,13.2-7.2c5.4,0,8.7,3,9.6,8.4v0.9
	c0.3,1.2,0.3,3,0.6,4.5c0,4.5-1.2,7.8-4.2,9C107.7,126,105.9,126,104.1,126z"/>
<path class="st1" d="M72.9,130.8c-0.3,0-0.6,0-0.9,0c-8.7-0.6-9.3-7.5-9.6-13.8c0-1.2-0.3-2.4-0.3-3.6c-0.6-4.8,1.5-7.2,3-8.4
	c3.9-2.7,9.9-1.5,14.4,0.6l9,4.8l-2.7,5.4l-9-4.8c-3.6-1.8-7.2-2.1-8.1-1.2c-0.6,0.6-0.6,1.8-0.6,2.7c0.3,1.2,0.3,2.7,0.3,3.9
	c0.6,7.2,1.2,8.1,4.2,8.4c6.3,0.6,12.6-5.4,12.6-5.7l4.2,4.2C88.8,123.9,81.6,130.8,72.9,130.8z M63,46.2c0,0-0.6,1.8-1.8,1.8
	c-0.6,0-1.2-1.2-1.2-2.4c0-3.6,2.4-8.1,4.8-10.2c1.8-1.5,4.2-2.4,6.9-2.4c1.2,0,2.7,0,3.9,0.6c1.5,0.6,2.4,1.8,2.4,4.2
	c0,0,0,1.2-3.9,1.2c-2.4,0-5.4,0.3-6.6,1.5C66.3,41.7,64.5,42.9,63,46.2z M79.2,63c-1.5,0-3.3-0.3-4.8-0.6c-1.8-0.3-2.7-2.1-2.1-3.6
	l0.6-0.9c0.3-0.6,0.9-0.9,1.5-0.9c0.3,0,0.6,0,0.9,0c2.4,0.6,6,0.6,7.2,0.6c-1.5-5.7-1.2-9.9-0.3-9.9c0.9,0,3.3,6.9,4.5,8.4
	c1.2,1.5,0.9,3.3-0.3,4.5C84.3,62.4,81.9,63,79.2,63z M109.2,63c-0.6,0-0.9,0-1.5,0c-1.8-0.3-2.7-1.5-2.7-3.3c0,0,0.3-2.7,1.8-2.7
	c1.2,0,2.7,0.6,3.3,0.6c-0.6-3.6-1.5-9.6-0.6-9.6s3,7.2,7.2,9.9c1.2,0.9,1.2,2.7-0.6,3.9C113.7,62.7,111.6,63,109.2,63z M114.9,43.5
	c-0.6-2.4-3.3-4.5-6.3-5.4c-3.9-0.9-6.6,0.9-6.6,0.9c0-2.7,2.1-4.8,3-5.1c1.2-0.6,1.8-0.9,3-0.9c6.3,0,8.7,3.9,10.8,7.8L114.9,43.5z
	"/>
<path class="st1" d="M95.7,81c-0.3,0-0.9,0-1.2,0l0,0c-2.1,0-3.9-0.6-5.1-2.1c-2.4-2.7-2.7-6.3-1.8-6.9c0.9-0.6,1.5,1.5,4.5,2.4
	c0,0,2.1,0.3,2.7,0.3s0.9,0,1.5,0c3.9,0,7.2-0.9,8.4-1.8C105,72.6,105,72,105,72s0-0.9-3.9-4.5c-3.9-3.6-5.1-8.1-5.1-12
	c0-4.5,0.6-7.5,1.2-7.5c0.9,0,1.8,9.6,8.1,15c4.5,3.9,5.7,6.6,5.7,9.3s-1.5,4.2-2.4,5.1C105.3,80.4,99.9,81,95.7,81z M94.2,90
	c-9.3-0.3-14.1-6-14.1-6s10.5,0.9,17.4,0.9V90H94.2z M100.8,90v-2.7v-2.7c0.6-0.3,5.4,0.3,10.8-1.8C110.4,89.1,101.1,90,100.8,90z
	 M87.3,99c-6.6,0-9.9-1.8-12.3-9.6c0,0-0.3-0.6,0.6-0.9c0.9-0.3,1.2,0.3,1.2,0.3C78,92.1,83.1,93,89.4,93c0.3,0,0.6,0,0.9,0
	c3,0,9,0,9,0s-1.2,6-7.5,6C90.9,99,87.9,99,87.3,99z"/>
<path class="st1" d="M87,111c-9.6,0-17.1-3-25.2-11.7c-4.5-4.8-4.5-11.1-3.9-11.7c0.6-0.6,1.5,3.6,5.1,7.5
	c7.2,7.8,17.4,10.2,26.1,9.6c11.4-0.9,16.2-7.5,17.1-8.1l5.1,3.6c-0.3,0.3-7.2,9.3-21.6,10.5C88.5,111,87.9,111,87,111z M40.2,87
	l-0.3-3l-0.3-3c0,0,0.6-0.3,1.8-1.2c0.9-0.6,1.8-0.6,2.7,0l1.5,1.2c0.9,0.9,0.9,2.4,0,3.3C42.9,86.7,40.5,87,40.2,87z M39,69
	l4.8,1.8c-0.3-1.2-1.8-6.6-6-7.8c-1.2-0.3-3.3,0.6-3.6,2.7c0,0,0,0.6,0,0.9v0.3C34.5,72,39,75,39,75V69z"/>
<path class="st1" d="M90,126c-5.1,0-9-3.9-9-9s3.9-9,9-9s9,3.9,9,9S95.1,126,90,126z M90,114c-1.5,0-3,1.2-3,3s1.2,3,3,3s3-1.2,3-3
	S91.8,114,90,114z"/>
<path class="st1" d="M118.8,132H25.2c-1.2,0-2.4-0.6-2.7-1.8l-4.2-10.5c-0.3-0.9-0.3-1.2-0.3-1.8v-1.2c0.3-3,17.1-13.5,23.7-17.4
	c-2.1-4.5-3.6-9.3-4.2-12.3c-2.4-0.3-5.4-1.5-9-5.1c-3.3-3.3-4.5-9-4.5-12.9c0-2.7,0.6-7.2,4.2-11.1c-1.8-8.1-1.5-14.4,1.2-18.6
	c1.2-2.1,2.7-3,3.9-3.9c2.4-9.3,12.3-13.5,14.7-14.7c2.4-1.8,13.5-9.3,32.1-8.7c25.2,0.9,40.8,16.5,42.6,42.6
	c0.3,2.4,0.3,4.8,0.3,7.2c0,19.5-6.9,31.5-10.5,36.3c13.5,9.3,13.5,10.8,13.5,12.3c0.3,3.9-3.3,15.6-4.5,19.2
	C121.2,131.1,120,132,118.8,132z M27.3,126h89.1c1.8-5.7,3.3-11.7,3.6-14.1c-1.8-1.8-8.1-6.6-13.8-10.2c-0.6-0.6-1.2-1.2-1.2-2.1
	s0.3-1.8,0.9-2.4c0,0,10.8-11.1,11.1-35.1c0-2.1,0-4.5-0.3-6.9C114.6,24,92.7,18.6,79.8,18c-18-0.6-28.2,7.5-28.5,7.8
	c-0.3,0.3-0.6,0.3-0.9,0.6c0,0-10.5,3.6-11.4,11.7c-0.3,1.2-1.2,2.4-2.4,2.7c-2.1,0.6-5.4,5.1-2.1,17.7c0.3,1.2,0,2.4-0.9,3
	c-3,2.4-3.3,6-3.3,7.8c0,3.6,1.2,7.2,3,9c3.6,3.9,6.3,3.3,6.3,3.3c0.9-0.3,1.8,0,2.4,0.3c0.6,0.6,1.2,1.2,1.2,2.1
	c0,0,1.5,9.3,5.4,15.3c0.3,0.6,0.6,1.5,0.3,2.4c-0.3,0.9-0.6,1.5-1.5,1.8c-2.1,1.2-18.9,12-23.1,15L27.3,126z M120.3,112.2
	L120.3,112.2L120.3,112.2z"/>
</svg>
