<?xml version="1.0" encoding="utf-8"?>
<!-- Generator: Adobe Illustrator 23.0.1, SVG Export Plug-In . SVG Version: 6.00 Build 0)  -->
<svg version="1.1" id="Camada_1" xmlns="http://www.w3.org/2000/svg" xmlns:xlink="http://www.w3.org/1999/xlink" x="0px" y="0px"
	 viewBox="0 0 144 144" style="enable-background:new 0 0 144 144;" xml:space="preserve">
<style type="text/css">
	.st0{fill:#FFFFFF;}
</style>
<path class="st0" d="M131.9,70.9c0.2-12.8-2.7-28-8.7-45.8l-4.7-14l-6.4,13.3c-0.3,0.7-0.7,1.4-1.1,2.1C100.5,17.5,86.9,12,72,12
	c-33.1,0-60,26.9-60,60s26.9,60,60,60s60-26.9,60-60C132,71.6,132,71.3,131.9,70.9z M47,115.3c-0.8,1-2.1,1.7-3.5,1.7
	c-2.5,0-4.5-2-4.5-4.5s2-4.5,4.5-4.5c1,0,2,0.4,2.8,1C48.3,110.6,48.6,113.4,47,115.3z M118.2,97.7c-9.4,12.9-26,13.6-41.6,13.3
	H56.3h-5.8c13.3-4.8,21.2-5.9,29.3-10.2c15.2-8,30.2-25.5,33.4-43.7c-5.8,17.5-23.3,32.5-39.3,38.7C62.8,100,43,104,43,104l-0.8-0.4
	c-13.5-6.8-13.9-36.9,10.6-46.7c10.7-4.3,21-1.9,32.6-4.8c12.4-3,26.7-12.6,32.5-25.1C124.4,47,132.2,78.3,118.2,97.7z"/>
</svg>
