<?xml version="1.0" encoding="utf-8"?>
<!-- Generator: Adobe Illustrator 23.0.1, SVG Export Plug-In . SVG Version: 6.00 Build 0)  -->
<svg version="1.1" id="Camada_1" xmlns="http://www.w3.org/2000/svg" xmlns:xlink="http://www.w3.org/1999/xlink" x="0px" y="0px"
	 viewBox="0 0 100 100" style="enable-background:new 0 0 100 100;" xml:space="preserve">
<style type="text/css">
	.st0{fill:#FFFFFF;}
</style>
<circle class="st0" cx="50" cy="50" r="7"/>
<path class="st0" d="M50,58c-4.4,0-8-3.6-8-8s3.6-8,8-8s8,3.6,8,8S54.4,58,50,58z M50,44c-3.3,0-6,2.7-6,6s2.7,6,6,6s6-2.7,6-6
	S53.3,44,50,44z"/>
<path class="st0" d="M88.5,50c0-5.4-6.5-10-16.5-12.8c2.6-10.1,1.8-18-2.8-20.7c-1.8-1.1-4-1.3-6.6-0.6c-3.8,1-8.2,4-12.6,8.4
	c-4.4-4.4-8.8-7.4-12.6-8.4c-2.5-0.7-4.7-0.5-6.6,0.6c-4.6,2.7-5.4,10.6-2.8,20.7C18,40,11.5,44.6,11.5,50S18,60,28,62.8
	c-2.6,10.1-1.8,18,2.8,20.7c1.1,0.6,2.4,1,3.8,1c0.9,0,1.8-0.1,2.8-0.4c3.8-1,8.2-4,12.6-8.4c4.4,4.4,8.8,7.4,12.6,8.4
	c1,0.3,1.9,0.4,2.8,0.4c1.4,0,2.6-0.3,3.8-1c4.6-2.7,5.4-10.6,2.8-20.7C82,60,88.5,55.4,88.5,50z M63.4,18.8c0.7-0.2,1.4-0.3,2-0.3
	c0.9,0,1.6,0.2,2.3,0.6c3.1,1.8,3.7,8.4,1.4,17.4c-3.2-0.7-6.6-1.3-10.3-1.6c-2.2-3.1-4.4-5.9-6.7-8.4C56.1,22.4,60,19.7,63.4,18.8z
	 M60.8,56.3c-1.2,2.1-2.4,4-3.7,5.9c-2.3,0.2-4.6,0.3-7.1,0.3s-4.8-0.1-7.1-0.3c-1.3-1.9-2.5-3.9-3.7-5.9C38,54.2,36.9,52.1,36,50
	c1-2.1,2.1-4.2,3.3-6.3c1.2-2.1,2.4-4,3.7-5.9c2.3-0.2,4.6-0.3,7.1-0.3s4.8,0.1,7.1,0.3c1.3,1.9,2.5,3.9,3.7,5.9
	c1.2,2.1,2.3,4.2,3.3,6.3C63.1,52.1,62,54.2,60.8,56.3z M65.6,53.5c1,2.5,1.9,4.8,2.6,7.1c-2.3,0.5-4.7,0.9-7.4,1.2
	c0.8-1.3,1.7-2.7,2.5-4.1C64.2,56.4,64.9,55,65.6,53.5z M50,71.4c-1.6-1.8-3.3-3.8-4.9-6c1.6,0.1,3.2,0.1,4.9,0.1s3.3,0,4.9-0.1
	C53.3,67.5,51.6,69.5,50,71.4z M39.1,61.9c-2.6-0.3-5.1-0.7-7.4-1.2c0.7-2.3,1.6-4.6,2.6-7.1c0.7,1.4,1.5,2.8,2.3,4.2
	C37.4,59.2,38.3,60.5,39.1,61.9z M34.4,46.5c-1-2.5-1.9-4.8-2.6-7.1c2.3-0.5,4.7-0.9,7.4-1.2c-0.8,1.3-1.7,2.7-2.5,4.1
	C35.8,43.6,35.1,45,34.4,46.5z M50,28.6c1.6,1.8,3.3,3.8,4.9,6c-1.6-0.1-3.2-0.1-4.9-0.1s-3.3,0-4.9,0.1
	C46.7,32.5,48.4,30.5,50,28.6z M63.4,42.2c-0.8-1.4-1.6-2.8-2.5-4.1c2.6,0.3,5.1,0.7,7.4,1.2c-0.7,2.3-1.6,4.6-2.6,7.1
	C64.9,45,64.2,43.6,63.4,42.2z M32.4,19.1c0.6-0.4,1.4-0.6,2.3-0.6c0.6,0,1.3,0.1,2,0.3c3.3,0.9,7.3,3.6,11.3,7.7
	c-2.3,2.5-4.5,5.3-6.7,8.4c-3.7,0.3-7.1,0.9-10.3,1.6C28.6,27.5,29.3,20.9,32.4,19.1z M14.5,50c0-3.6,5.4-7.4,14.3-9.9
	c1,3.2,2.2,6.5,3.8,9.9c-1.6,3.4-2.8,6.7-3.8,9.9C19.9,57.4,14.5,53.6,14.5,50z M36.6,81.2c-1.7,0.5-3.2,0.4-4.3-0.3
	c-3.1-1.8-3.7-8.4-1.4-17.4c3.2,0.7,6.6,1.3,10.3,1.6c2.2,3.1,4.4,5.9,6.7,8.4C43.9,77.6,40,80.3,36.6,81.2z M67.6,80.9
	c-1.1,0.6-2.5,0.7-4.3,0.3c-3.3-0.9-7.3-3.6-11.3-7.7c2.3-2.5,4.5-5.3,6.7-8.4c3.7-0.3,7.1-0.9,10.3-1.6
	C71.4,72.5,70.7,79.1,67.6,80.9z M71.2,59.9c-1-3.2-2.2-6.5-3.8-9.9c1.6-3.4,2.8-6.7,3.8-9.9c8.9,2.5,14.3,6.3,14.3,9.9
	S80.1,57.4,71.2,59.9z"/>
<path class="st0" d="M34.6,85c-1.5,0-2.8-0.4-4-1c-4.6-2.7-5.8-10.3-3.2-20.8C17,60.2,11,55.4,11,50s6-10.2,16.4-13.1
	C24.8,26.3,26,18.7,30.6,16c1.9-1.1,4.3-1.3,6.9-0.6c3.7,1,8,3.8,12.5,8.2c4.4-4.4,8.7-7.2,12.5-8.2c2.7-0.7,5-0.5,6.9,0.6
	c4.6,2.7,5.8,10.3,3.2,20.8C83,39.8,89,44.6,89,50s-6,10.2-16.4,13.1C75.2,73.7,74,81.3,69.4,84c-1.9,1.1-4.3,1.3-6.9,0.6
	c-3.7-1-8-3.8-12.5-8.2c-4.4,4.4-8.7,7.2-12.5,8.2C36.5,84.9,35.5,85,34.6,85C34.6,85,34.6,85,34.6,85z M34.6,16
	c-1.3,0-2.5,0.3-3.5,0.9c-4.2,2.5-5.2,10-2.6,20.2c0.1,0.3-0.1,0.5-0.4,0.6C18,40.5,12,45.1,12,50s6,9.5,16.2,12.3
	c0.3,0.1,0.4,0.3,0.4,0.6c-2.6,10.2-1.6,17.7,2.6,20.2c1,0.6,2.2,0.9,3.5,0.9c0,0,0,0,0,0c0.8,0,1.7-0.1,2.7-0.4
	c3.6-1,7.9-3.8,12.4-8.3c0.2-0.2,0.5-0.2,0.7,0c4.4,4.4,8.7,7.3,12.4,8.3c2.4,0.6,4.5,0.5,6.2-0.5c4.2-2.5,5.2-10,2.6-20.2
	c-0.1-0.3,0.1-0.5,0.4-0.6C82,59.5,88,54.9,88,50s-6-9.5-16.2-12.3c-0.3-0.1-0.4-0.3-0.4-0.6c2.6-10.2,1.6-17.7-2.6-20.2
	c-1.7-1-3.8-1.2-6.2-0.5c-3.6,1-7.9,3.8-12.4,8.3c-0.2,0.2-0.5,0.2-0.7,0c-4.4-4.4-8.7-7.3-12.4-8.3C36.3,16.1,35.4,16,34.6,16z
	 M65.4,82c-0.7,0-1.4-0.1-2.1-0.3c-3.3-0.9-7.3-3.6-11.5-7.8c-0.2-0.2-0.2-0.5,0-0.7c2.3-2.5,4.5-5.3,6.6-8.4
	c0.1-0.1,0.2-0.2,0.4-0.2c3.6-0.3,7.1-0.9,10.2-1.6c0.3-0.1,0.5,0.1,0.6,0.4c2.3,9.1,1.7,16-1.7,18l0,0C67.2,81.8,66.3,82,65.4,82z
	 M52.8,73.5c4,3.9,7.7,6.4,10.7,7.2c1.6,0.4,2.9,0.4,3.9-0.2l0,0c2.9-1.7,3.4-8.1,1.3-16.4c-3,0.7-6.3,1.2-9.7,1.5
	C57,68.5,54.9,71.1,52.8,73.5z M34.6,82c-1,0-1.8-0.2-2.5-0.6c-3.4-2-4-8.8-1.7-18c0.1-0.3,0.3-0.4,0.6-0.4
	c3.2,0.7,6.6,1.2,10.2,1.6c0.1,0,0.3,0.1,0.4,0.2c2.1,3.1,4.4,5.9,6.6,8.4c0.2,0.2,0.2,0.5,0,0.7c-4.2,4.2-8.2,6.9-11.5,7.8l0,0
	C36,81.9,35.3,82,34.6,82z M31.3,64.1c-2.1,8.3-1.5,14.7,1.3,16.4c1,0.6,2.3,0.6,3.9,0.2l0,0c3.1-0.8,6.8-3.3,10.7-7.2
	c-2.1-2.4-4.2-5-6.3-7.9C37.6,65.3,34.3,64.8,31.3,64.1z M50,71.9c-0.1,0-0.3-0.1-0.4-0.2c-1.7-1.8-3.3-3.9-4.9-6
	c-0.1-0.2-0.1-0.4,0-0.5c0.1-0.2,0.3-0.3,0.5-0.3c3.3,0.2,6.4,0.2,9.7,0c0.2,0,0.4,0.1,0.5,0.3s0.1,0.4,0,0.5
	c-1.6,2.2-3.2,4.2-4.9,6C50.3,71.8,50.1,71.9,50,71.9z M46.2,65.9c1.3,1.7,2.5,3.2,3.8,4.7c1.3-1.5,2.6-3,3.8-4.7
	C51.2,66,48.8,66,46.2,65.9z M50,63c-2.4,0-4.8-0.1-7.1-0.3c-0.2,0-0.3-0.1-0.4-0.2c-1.3-2-2.6-4-3.7-6c-1.2-2.1-2.3-4.2-3.3-6.3
	c-0.1-0.1-0.1-0.3,0-0.4c1-2.1,2.1-4.3,3.3-6.3c1.1-2,2.4-4,3.7-6c0.1-0.1,0.2-0.2,0.4-0.2c4.7-0.3,9.5-0.3,14.2,0
	c0.2,0,0.3,0.1,0.4,0.2c1.3,2,2.6,4,3.7,6c1.2,2.1,2.3,4.2,3.3,6.3c0.1,0.1,0.1,0.3,0,0.4c-1,2.1-2.1,4.3-3.3,6.3l0,0
	c-1.1,2-2.4,4-3.7,6c-0.1,0.1-0.2,0.2-0.4,0.2C54.8,62.9,52.4,63,50,63z M43.2,61.8c4.5,0.3,9.1,0.3,13.6,0c1.3-1.9,2.5-3.8,3.5-5.7
	c1.1-2,2.2-4,3.2-6c-1-2-2-4.1-3.2-6c-1.1-1.9-2.3-3.8-3.5-5.7c-4.5-0.3-9.1-0.3-13.6,0c-1.3,1.9-2.5,3.8-3.5,5.7
	c-1.1,2-2.2,4-3.2,6c1,2,2,4.1,3.2,6C40.8,57.9,41.9,59.9,43.2,61.8z M60.9,62.4c-0.2,0-0.3-0.1-0.4-0.2c-0.1-0.2-0.1-0.4,0-0.5
	c0.9-1.5,1.7-2.8,2.5-4.1c0.8-1.3,1.5-2.8,2.3-4.2c0.1-0.2,0.3-0.3,0.5-0.3c0.2,0,0.4,0.1,0.4,0.3c1,2.4,1.9,4.8,2.6,7.1
	c0,0.1,0,0.3,0,0.4c-0.1,0.1-0.2,0.2-0.3,0.2C66,61.6,63.5,62.1,60.9,62.4C60.9,62.4,60.9,62.4,60.9,62.4z M65.6,54.7
	C65,55.9,64.4,57,63.8,58c-0.6,1-1.2,2.1-1.9,3.2c2-0.3,3.9-0.6,5.7-1C67,58.4,66.4,56.6,65.6,54.7z M39.1,62.4
	C39.1,62.4,39.1,62.4,39.1,62.4c-2.6-0.3-5.1-0.7-7.5-1.3c-0.1,0-0.3-0.1-0.3-0.2c-0.1-0.1-0.1-0.3,0-0.4c0.7-2.3,1.6-4.7,2.6-7.1
	c0.1-0.2,0.2-0.3,0.4-0.3c0.2,0,0.4,0.1,0.5,0.3c0.7,1.5,1.5,2.9,2.3,4.2c0.7,1.3,1.5,2.6,2.5,4.1c0.1,0.2,0.1,0.4,0,0.5
	C39.4,62.3,39.3,62.4,39.1,62.4z M32.4,60.3c1.8,0.4,3.8,0.7,5.7,1c-0.7-1.1-1.3-2.2-1.9-3.2c-0.6-1.1-1.2-2.2-1.8-3.3
	C33.6,56.6,33,58.4,32.4,60.3z M71.2,60.4c-0.2,0-0.4-0.1-0.5-0.4c-1-3.2-2.2-6.5-3.8-9.8c-0.1-0.1-0.1-0.3,0-0.4
	c1.5-3.3,2.8-6.7,3.8-9.8c0.1-0.3,0.4-0.4,0.6-0.3C80.4,42.1,86,46.1,86,50s-5.6,7.9-14.7,10.4C71.3,60.4,71.2,60.4,71.2,60.4z
	 M67.9,50c1.4,3.2,2.6,6.3,3.6,9.3c8.2-2.3,13.5-6,13.5-9.3s-5.3-6.9-13.5-9.3C70.6,43.7,69.3,46.8,67.9,50z M28.8,60.4
	c0,0-0.1,0-0.1,0C19.6,57.9,14,53.9,14,50s5.6-7.9,14.7-10.4c0.3-0.1,0.5,0.1,0.6,0.3c1,3.2,2.2,6.5,3.8,9.8c0.1,0.1,0.1,0.3,0,0.4
	c-1.5,3.3-2.8,6.7-3.8,9.8C29.2,60.3,29,60.4,28.8,60.4z M28.5,40.7C20.3,43.1,15,46.7,15,50s5.3,6.9,13.5,9.3
	c0.9-3,2.2-6.1,3.6-9.3C30.7,46.8,29.4,43.7,28.5,40.7z M65.6,47c-0.2,0-0.4-0.1-0.4-0.3c-0.8-1.5-1.5-2.9-2.3-4.2l0,0
	c-0.7-1.3-1.5-2.6-2.5-4.1c-0.1-0.2-0.1-0.4,0-0.5c0.1-0.2,0.3-0.3,0.5-0.2c2.6,0.3,5.1,0.7,7.4,1.3c0.1,0,0.3,0.1,0.3,0.2
	c0.1,0.1,0.1,0.3,0,0.4c-0.7,2.3-1.6,4.7-2.6,7.1C66,46.8,65.9,46.9,65.6,47C65.7,47,65.7,47,65.6,47z M63.8,42
	c0.6,1.1,1.2,2.2,1.8,3.3c0.8-1.9,1.4-3.7,2-5.5c-1.8-0.4-3.8-0.7-5.7-1C62.6,39.9,63.2,40.9,63.8,42L63.8,42z M34.4,47
	C34.3,47,34.3,47,34.4,47c-0.2,0-0.4-0.1-0.5-0.3c-1-2.4-1.9-4.8-2.6-7.1c0-0.1,0-0.3,0-0.4c0.1-0.1,0.2-0.2,0.3-0.2
	c2.4-0.5,4.8-0.9,7.4-1.3c0.2,0,0.4,0.1,0.5,0.2c0.1,0.2,0.1,0.4,0,0.5c-0.9,1.5-1.7,2.8-2.5,4.1c-0.8,1.4-1.5,2.7-2.3,4.2
	C34.7,46.9,34.5,47,34.4,47z M32.4,39.7c0.6,1.8,1.3,3.7,2,5.5c0.6-1.1,1.2-2.2,1.8-3.3c0.6-1,1.2-2.1,1.9-3.2
	C36.2,39,34.2,39.4,32.4,39.7z M69.1,37c0,0-0.1,0-0.1,0c-3.2-0.7-6.6-1.2-10.3-1.6c-0.1,0-0.3-0.1-0.4-0.2
	c-2.1-3.1-4.4-5.9-6.6-8.4c-0.2-0.2-0.2-0.5,0-0.7c4.2-4.2,8.2-6.9,11.5-7.8l0,0c1.9-0.5,3.4-0.4,4.7,0.3c3.4,2,4,8.8,1.7,18
	C69.5,36.8,69.3,37,69.1,37z M59,34.4c3.4,0.3,6.6,0.8,9.7,1.5c2.1-8.3,1.5-14.7-1.3-16.4c-1-0.6-2.3-0.6-3.9-0.2
	c-3.1,0.8-6.8,3.3-10.7,7.2C54.9,28.9,57,31.5,59,34.4z M30.9,37c-0.2,0-0.4-0.2-0.5-0.4c-2.3-9.1-1.7-16,1.7-18c0,0,0,0,0,0
	c1.2-0.7,2.8-0.8,4.7-0.3c3.3,0.9,7.3,3.6,11.5,7.8c0.2,0.2,0.2,0.5,0,0.7c-2.3,2.5-4.5,5.3-6.6,8.4c-0.1,0.1-0.2,0.2-0.4,0.2
	c-3.6,0.3-7.1,0.9-10.3,1.6C31,37,31,37,30.9,37z M32.6,19.5c-2.9,1.7-3.4,8.1-1.3,16.4c3-0.7,6.3-1.2,9.7-1.5
	c2-2.9,4.1-5.6,6.3-7.9c-4-3.9-7.7-6.4-10.7-7.2C34.9,18.8,33.6,18.9,32.6,19.5L32.6,19.5z M54.9,35.1
	C54.9,35.1,54.8,35.1,54.9,35.1c-3.3-0.2-6.4-0.2-9.7,0c-0.2,0-0.4-0.1-0.5-0.3c-0.1-0.2-0.1-0.4,0-0.5c1.6-2.2,3.2-4.2,4.9-6
	c0.2-0.2,0.6-0.2,0.7,0c1.7,1.8,3.3,3.9,4.9,6c0.1,0.2,0.1,0.4,0,0.5C55.2,35,55,35.1,54.9,35.1z M50,34c1.2,0,2.5,0,3.8,0.1
	c-1.3-1.7-2.5-3.2-3.8-4.7c-1.3,1.5-2.6,3-3.8,4.7C47.5,34,48.8,34,50,34z"/>
</svg>
