<?xml version="1.0" encoding="utf-8"?>
<!-- Generator: Adobe Illustrator 23.0.1, SVG Export Plug-In . SVG Version: 6.00 Build 0)  -->
<svg version="1.1" id="Camada_1" xmlns="http://www.w3.org/2000/svg" xmlns:xlink="http://www.w3.org/1999/xlink" x="0px" y="0px"
	 viewBox="0 0 144 144" style="enable-background:new 0 0 144 144;" xml:space="preserve">
<style type="text/css">
	.st0{fill:#FFFFFF;}
</style>
<path class="st0" d="M40.6,64.6c0,1.8,0.2,3.2,0.5,4.3c0.4,1.1,0.9,2.2,1.5,3.5c0.2,0.4,0.3,0.8,0.3,1.1c0,0.5-0.3,1-0.9,1.5l-3,2
	c-0.4,0.3-0.9,0.4-1.2,0.4c-0.5,0-1-0.2-1.4-0.7c-0.7-0.7-1.2-1.5-1.7-2.3c-0.5-0.8-1-1.7-1.5-2.9c-3.7,4.4-8.4,6.7-14.1,6.7
	c-4,0-7.2-1.2-9.6-3.5S6,69.4,6,65.5c0-4.1,1.4-7.4,4.4-10s6.8-3.8,11.7-3.8c1.6,0,3.3,0.1,5.1,0.4c1.8,0.2,3.6,0.6,5.5,1.1v-3.5
	c0-3.7-0.8-6.2-2.3-7.7c-1.5-1.5-4.1-2.2-7.8-2.2c-1.7,0-3.4,0.2-5.2,0.6c-1.8,0.4-3.5,1-5.2,1.6c-0.8,0.3-1.3,0.5-1.7,0.6
	c-0.3,0.1-0.6,0.1-0.8,0.1c-0.7,0-1-0.5-1-1.5v-2.4c0-0.8,0.1-1.4,0.3-1.7s0.7-0.7,1.3-1c1.7-0.9,3.7-1.6,6-2.2
	c2.3-0.6,4.8-0.9,7.5-0.9c5.7,0,9.9,1.3,12.5,3.9c2.6,2.6,4,6.6,4,11.9L40.6,64.6L40.6,64.6L40.6,64.6z M21.1,71.9
	c1.6,0,3.2-0.3,4.9-0.9c1.7-0.6,3.3-1.6,4.6-3.1c0.8-0.9,1.3-1.9,1.6-3.1c0.3-1.2,0.5-2.6,0.5-4.2v-2c-1.4-0.3-2.9-0.6-4.4-0.8
	c-1.5-0.2-3-0.3-4.5-0.3c-3.2,0-5.6,0.6-7.1,1.9s-2.3,3.1-2.3,5.6c0,2.3,0.6,4,1.8,5.1C17.3,71.4,18.9,71.9,21.1,71.9z M59.6,77.2
	c-0.9,0-1.4-0.1-1.8-0.5c-0.4-0.3-0.7-1-1-1.9L45.5,37.4c-0.3-1-0.4-1.6-0.4-1.9c0-0.8,0.4-1.2,1.1-1.2h4.7c0.9,0,1.5,0.1,1.9,0.5
	c0.4,0.3,0.7,1,1,1.9l8,32l7.5-32c0.2-1,0.5-1.6,0.9-1.9c0.4-0.3,1.1-0.5,1.9-0.5h3.8c0.9,0,1.5,0.1,1.9,0.5c0.4,0.3,0.7,1,0.9,1.9
	L86.3,69l8.3-32.4c0.3-1,0.6-1.6,1-1.9c0.4-0.3,1-0.5,1.9-0.5h4.5c0.8,0,1.2,0.4,1.2,1.2c0,0.2,0,0.5-0.1,0.8s-0.1,0.7-0.3,1.2
	L91.1,74.8c-0.3,1-0.6,1.6-1,1.9s-1,0.5-1.8,0.5h-4.1c-0.9,0-1.5-0.1-1.9-0.5c-0.4-0.3-0.7-1-0.9-1.9l-7.4-31.2l-7.4,31.2
	c-0.2,1-0.5,1.6-0.9,1.9c-0.4,0.3-1.1,0.5-1.9,0.5H59.6z M121.1,78.5c-2.5,0-5-0.3-7.4-0.9c-2.4-0.6-4.3-1.2-5.5-1.9
	c-0.8-0.4-1.3-0.9-1.5-1.4c-0.2-0.4-0.3-0.9-0.3-1.4v-2.5c0-1,0.4-1.5,1.1-1.5c0.3,0,0.6,0,0.9,0.1c0.3,0.1,0.7,0.3,1.2,0.5
	c1.6,0.7,3.4,1.3,5.3,1.7c1.9,0.4,3.8,0.6,5.7,0.6c3,0,5.4-0.5,7-1.6c1.6-1.1,2.5-2.6,2.5-4.6c0-1.4-0.4-2.5-1.3-3.4
	c-0.9-0.9-2.5-1.7-4.8-2.5l-6.9-2.2c-3.5-1.1-6.1-2.8-7.7-4.9c-1.6-2.1-2.4-4.5-2.4-7c0-2,0.4-3.8,1.3-5.4s2-2.9,3.4-4
	c1.4-1.1,3.1-1.9,5-2.5c1.9-0.6,3.9-0.8,6-0.8c1.1,0,2.2,0,3.2,0.2c1.1,0.1,2.1,0.3,3.1,0.5c1,0.2,1.9,0.5,2.7,0.8s1.5,0.6,2,0.9
	c0.7,0.4,1.1,0.8,1.4,1.2c0.3,0.4,0.4,0.9,0.4,1.6v2.3c0,1-0.4,1.5-1.1,1.5c-0.4,0-1-0.2-1.8-0.6c-2.7-1.3-5.8-1.9-9.2-1.9
	c-2.7,0-4.9,0.4-6.4,1.4c-1.5,0.9-2.3,2.3-2.3,4.3c0,1.4,0.5,2.5,1.4,3.4c1,0.9,2.7,1.8,5.3,2.7l6.8,2.2c3.4,1.1,5.9,2.7,7.4,4.6
	s2.2,4.3,2.2,6.8c0,2.1-0.4,4-1.2,5.6c-0.9,1.6-2,3.1-3.5,4.3c-1.5,1.2-3.3,2.1-5.3,2.7C125.8,78.1,123.6,78.5,121.1,78.5z"/>
<path class="st0" d="M130.2,102c-15.8,11.8-38.6,18-58.3,18c-27.6,0-52.4-10.3-71.2-27.4c-1.5-1.4-0.1-3.2,1.6-2.1
	c20.3,11.9,45.4,19.1,71.3,19.1c17.5,0,36.7-3.7,54.4-11.2C130.5,97.1,132.8,100,130.2,102z M136.7,94.4c-2-2.6-13.3-1.3-18.4-0.6
	c-1.5,0.2-1.8-1.2-0.4-2.2c9-6.4,23.8-4.5,25.5-2.4c1.7,2.2-0.5,17.1-8.9,24.3c-1.3,1.1-2.5,0.5-2-0.9
	C134.5,107.8,138.8,97,136.7,94.4z"/>
</svg>
