<?xml version="1.0" encoding="utf-8"?>
<!-- Generator: Adobe Illustrator 23.0.1, SVG Export Plug-In . SVG Version: 6.00 Build 0)  -->
<svg version="1.1" id="Camada_1" xmlns="http://www.w3.org/2000/svg" xmlns:xlink="http://www.w3.org/1999/xlink" x="0px" y="0px"
	 viewBox="0 0 144 144" style="enable-background:new 0 0 144 144;" xml:space="preserve">
<style type="text/css">
	.st0{fill:#FFFFFF;}
</style>
<path class="st0" d="M126.6,66.3L77.7,17.4C76.2,15.9,74.1,15,72,15l0,0c-2.1,0-4.2,0.9-5.7,2.4L55.8,27.9l12.3,12.3
	c1.2-0.6,2.4-0.9,3.9-0.9c5.1,0,9,3.9,9,9c0,1.5-0.3,2.7-0.9,3.9l12,12c1.2-0.6,2.4-0.9,3.9-0.9c5.1,0,9,3.9,9,9s-3.9,9-9,9
	s-9-3.9-9-9c0-1.5,0.3-2.7,0.9-3.9l-12-12c-0.3,0-0.6,0.3-0.9,0.3v31.2c3.6,1.2,6,4.5,6,8.4c0,5.1-3.9,9-9,9s-9-3.9-9-9
	c0-3.9,2.4-7.2,6-8.4V56.4c-3.6-1.2-6-4.5-6-8.4c0-1.5,0.3-2.7,0.9-3.9L51.6,31.8L17.4,66.3C15.9,67.8,15,69.9,15,72
	s0.9,4.2,2.4,5.7l48.9,48.9l0,0c1.5,1.5,3.6,2.4,5.7,2.4s4.2-0.9,5.7-2.4l48.9-48.9c1.5-1.5,2.4-3.6,2.4-5.7
	C129,69.9,128.1,67.8,126.6,66.3z"/>
</svg>
