<?xml version="1.0" encoding="utf-8"?>
<!-- Generator: Adobe Illustrator 23.0.1, SVG Export Plug-In . SVG Version: 6.00 Build 0)  -->
<svg version="1.1" id="Camada_1" xmlns="http://www.w3.org/2000/svg" xmlns:xlink="http://www.w3.org/1999/xlink" x="0px" y="0px"
	 viewBox="0 0 144 144" style="enable-background:new 0 0 144 144;" xml:space="preserve">
<style type="text/css">
	.st0{fill:#FFFFFF;}
	.st1{fill:#F88909;}
	.st2{fill:#C757BC;}
	.st3{fill:#D3638F;}
	.st4{fill:#E07063;}
	.st5{fill:#EC7D36;}
</style>
<polygon class="st0" points="72,18 54,37.1 35.9,56.1 18,75 18,18 "/>
<polygon class="st1" points="72,18 71.9,18 53.9,37 35.9,56 18,74.9 18,75 18,75.3 18,126 44.1,99.9 62.6,81.4 81.2,62.8 99.8,44.3 
	126,18 "/>
<polygon class="st2" points="44.1,99.9 18,126 18,75.3 "/>
<polygon class="st3" points="62.6,81.4 44.1,99.9 18,75.3 18,75 35.9,56.1 "/>
<polygon class="st4" points="81.2,62.8 62.6,81.4 35.9,56.1 54,37.1 "/>
<polygon class="st5" points="99.8,44.3 81.2,62.8 54,37.1 72,18 "/>
<polygon class="st1" points="126,18 99.8,44.3 72,18 "/>
<polygon class="st0" points="34.5,57.4 24,68.6 18,63 18,41.8 "/>
<polygon class="st0" points="45.1,46.3 34.5,57.4 18,41.8 18,20.6 "/>
<polygon class="st0" points="55.7,35.1 45.1,46.3 18,20.6 18,18 37.6,18 "/>
<polygon class="st0" points="66.2,23.9 55.7,35.1 37.6,18 72,18 "/>
<polygon class="st0" points="69,75 18,126 28.1,126 52.6,126 120,126 "/>
<polygon class="st0" points="77,126 52.6,126 35.3,108.8 47.5,96.5 "/>
<polygon class="st0" points="101.6,126 77,126 47.5,96.5 59.8,84.3 "/>
<polygon class="st0" points="126,126 101.6,126 59.8,84.3 72,72 "/>
</svg>
